<mxfile host="app.diagrams.net" modified="2024-01-28T09:32:14.068Z" agent="Mozilla/5.0 (Windows NT 10.0; Win64; x64) AppleWebKit/537.36 (KHTML, like Gecko) Chrome/120.0.0.0 Safari/537.36" etag="9g0X-L01cTPLt0Xp9C6B" version="23.0.2" type="github">
  <diagram name="第 1 页" id="uyouohGRBcDSfjJ6WK2Q">
    <mxGraphModel dx="1434" dy="338" grid="0" gridSize="10" guides="1" tooltips="1" connect="1" arrows="1" fold="1" page="0" pageScale="1" pageWidth="827" pageHeight="1169" math="0" shadow="0">
      <root>
        <mxCell id="0" />
        <mxCell id="1" parent="0" />
        <mxCell id="Weh22ql0-clUbXLXubPP-4" style="edgeStyle=orthogonalEdgeStyle;rounded=0;orthogonalLoop=1;jettySize=auto;html=1;exitX=0.5;exitY=0;exitDx=0;exitDy=0;" edge="1" parent="1" source="Weh22ql0-clUbXLXubPP-1" target="Weh22ql0-clUbXLXubPP-2">
          <mxGeometry relative="1" as="geometry">
            <Array as="points">
              <mxPoint x="200" y="580" />
            </Array>
          </mxGeometry>
        </mxCell>
        <mxCell id="Weh22ql0-clUbXLXubPP-1" value="秒杀" style="rounded=1;whiteSpace=wrap;html=1;fontFamily=Comic Sans MS;fillColor=#ffe6cc;strokeColor=#d79b00;" vertex="1" parent="1">
          <mxGeometry x="160" y="640" width="80" height="40" as="geometry" />
        </mxCell>
        <mxCell id="Weh22ql0-clUbXLXubPP-5" style="edgeStyle=orthogonalEdgeStyle;rounded=0;orthogonalLoop=1;jettySize=auto;html=1;exitX=1;exitY=0.5;exitDx=0;exitDy=0;entryX=0.5;entryY=0;entryDx=0;entryDy=0;" edge="1" parent="1" source="Weh22ql0-clUbXLXubPP-2" target="Weh22ql0-clUbXLXubPP-3">
          <mxGeometry relative="1" as="geometry" />
        </mxCell>
        <mxCell id="Weh22ql0-clUbXLXubPP-2" value="MQ服务端" style="rounded=1;whiteSpace=wrap;html=1;fontFamily=Comic Sans MS;fillColor=#e1d5e7;strokeColor=#9673a6;" vertex="1" parent="1">
          <mxGeometry x="280" y="560" width="80" height="40" as="geometry" />
        </mxCell>
        <mxCell id="Weh22ql0-clUbXLXubPP-3" value="下单" style="rounded=1;whiteSpace=wrap;html=1;fontFamily=Comic Sans MS;fillColor=#ffe6cc;strokeColor=#d79b00;" vertex="1" parent="1">
          <mxGeometry x="400" y="640" width="80" height="40" as="geometry" />
        </mxCell>
        <mxCell id="Weh22ql0-clUbXLXubPP-6" value="发送消息" style="text;html=1;align=center;verticalAlign=middle;resizable=0;points=[];autosize=1;strokeColor=none;fillColor=none;fontFamily=Comic Sans MS;" vertex="1" parent="1">
          <mxGeometry x="165" y="600" width="70" height="30" as="geometry" />
        </mxCell>
        <mxCell id="Weh22ql0-clUbXLXubPP-7" value="消费消息" style="text;html=1;align=center;verticalAlign=middle;resizable=0;points=[];autosize=1;strokeColor=none;fillColor=none;fontFamily=Comic Sans MS;" vertex="1" parent="1">
          <mxGeometry x="405" y="600" width="70" height="30" as="geometry" />
        </mxCell>
        <mxCell id="Weh22ql0-clUbXLXubPP-11" style="edgeStyle=orthogonalEdgeStyle;rounded=0;orthogonalLoop=1;jettySize=auto;html=1;exitX=0.5;exitY=0;exitDx=0;exitDy=0;entryX=0;entryY=0.5;entryDx=0;entryDy=0;" edge="1" parent="1" source="Weh22ql0-clUbXLXubPP-9" target="Weh22ql0-clUbXLXubPP-10">
          <mxGeometry relative="1" as="geometry" />
        </mxCell>
        <mxCell id="Weh22ql0-clUbXLXubPP-9" value="生成订单（待支付）" style="rounded=1;whiteSpace=wrap;html=1;fillColor=#ffe6cc;strokeColor=#d79b00;" vertex="1" parent="1">
          <mxGeometry x="80" y="960" width="120" height="40" as="geometry" />
        </mxCell>
        <mxCell id="Weh22ql0-clUbXLXubPP-14" style="edgeStyle=orthogonalEdgeStyle;rounded=0;orthogonalLoop=1;jettySize=auto;html=1;exitX=1;exitY=0.5;exitDx=0;exitDy=0;entryX=0.5;entryY=0;entryDx=0;entryDy=0;" edge="1" parent="1" source="Weh22ql0-clUbXLXubPP-10" target="Weh22ql0-clUbXLXubPP-13">
          <mxGeometry relative="1" as="geometry" />
        </mxCell>
        <mxCell id="Weh22ql0-clUbXLXubPP-10" value="延迟队列" style="rounded=1;whiteSpace=wrap;html=1;fillColor=#e1d5e7;strokeColor=#9673a6;" vertex="1" parent="1">
          <mxGeometry x="240" y="840" width="80" height="40" as="geometry" />
        </mxCell>
        <mxCell id="Weh22ql0-clUbXLXubPP-12" value="发送MQ消息" style="text;html=1;align=center;verticalAlign=middle;resizable=0;points=[];autosize=1;strokeColor=none;fillColor=none;" vertex="1" parent="1">
          <mxGeometry x="95" y="888" width="90" height="30" as="geometry" />
        </mxCell>
        <mxCell id="Weh22ql0-clUbXLXubPP-17" style="edgeStyle=orthogonalEdgeStyle;rounded=0;orthogonalLoop=1;jettySize=auto;html=1;exitX=0.5;exitY=1;exitDx=0;exitDy=0;" edge="1" parent="1" source="Weh22ql0-clUbXLXubPP-13" target="Weh22ql0-clUbXLXubPP-16">
          <mxGeometry relative="1" as="geometry" />
        </mxCell>
        <mxCell id="Weh22ql0-clUbXLXubPP-13" value="查询订单状态" style="rounded=1;whiteSpace=wrap;html=1;fillColor=#ffe6cc;strokeColor=#d79b00;" vertex="1" parent="1">
          <mxGeometry x="360" y="920" width="110" height="40" as="geometry" />
        </mxCell>
        <mxCell id="Weh22ql0-clUbXLXubPP-15" value="消费MQ消息" style="text;html=1;align=center;verticalAlign=middle;resizable=0;points=[];autosize=1;strokeColor=none;fillColor=none;" vertex="1" parent="1">
          <mxGeometry x="370" y="870" width="90" height="30" as="geometry" />
        </mxCell>
        <mxCell id="Weh22ql0-clUbXLXubPP-19" style="edgeStyle=orthogonalEdgeStyle;rounded=0;orthogonalLoop=1;jettySize=auto;html=1;exitX=0.5;exitY=1;exitDx=0;exitDy=0;" edge="1" parent="1" source="Weh22ql0-clUbXLXubPP-16" target="Weh22ql0-clUbXLXubPP-18">
          <mxGeometry relative="1" as="geometry" />
        </mxCell>
        <mxCell id="Weh22ql0-clUbXLXubPP-22" style="edgeStyle=orthogonalEdgeStyle;rounded=0;orthogonalLoop=1;jettySize=auto;html=1;exitX=1;exitY=0.5;exitDx=0;exitDy=0;entryX=0.5;entryY=0;entryDx=0;entryDy=0;" edge="1" parent="1" source="Weh22ql0-clUbXLXubPP-16" target="Weh22ql0-clUbXLXubPP-21">
          <mxGeometry relative="1" as="geometry" />
        </mxCell>
        <mxCell id="Weh22ql0-clUbXLXubPP-16" value="是否待支付" style="rhombus;whiteSpace=wrap;html=1;fillColor=#f8cecc;strokeColor=#b85450;" vertex="1" parent="1">
          <mxGeometry x="365" y="1000" width="100" height="50" as="geometry" />
        </mxCell>
        <mxCell id="Weh22ql0-clUbXLXubPP-24" style="edgeStyle=orthogonalEdgeStyle;rounded=0;orthogonalLoop=1;jettySize=auto;html=1;exitX=1;exitY=0.5;exitDx=0;exitDy=0;" edge="1" parent="1" source="Weh22ql0-clUbXLXubPP-18" target="Weh22ql0-clUbXLXubPP-21">
          <mxGeometry relative="1" as="geometry" />
        </mxCell>
        <mxCell id="Weh22ql0-clUbXLXubPP-18" value="取消订单" style="rounded=1;whiteSpace=wrap;html=1;fillColor=#ffe6cc;strokeColor=#d79b00;" vertex="1" parent="1">
          <mxGeometry x="375" y="1110" width="80" height="40" as="geometry" />
        </mxCell>
        <mxCell id="Weh22ql0-clUbXLXubPP-20" value="是" style="text;html=1;align=center;verticalAlign=middle;resizable=0;points=[];autosize=1;strokeColor=none;fillColor=none;" vertex="1" parent="1">
          <mxGeometry x="415" y="1060" width="40" height="30" as="geometry" />
        </mxCell>
        <mxCell id="Weh22ql0-clUbXLXubPP-21" value="返回" style="rounded=1;whiteSpace=wrap;html=1;fillColor=#ffe6cc;strokeColor=#d79b00;" vertex="1" parent="1">
          <mxGeometry x="500" y="1110" width="80" height="40" as="geometry" />
        </mxCell>
        <mxCell id="Weh22ql0-clUbXLXubPP-23" value="否" style="text;html=1;align=center;verticalAlign=middle;resizable=0;points=[];autosize=1;strokeColor=none;fillColor=none;" vertex="1" parent="1">
          <mxGeometry x="500" y="1030" width="40" height="30" as="geometry" />
        </mxCell>
      </root>
    </mxGraphModel>
  </diagram>
</mxfile>
